<svg width="46" height="46" viewBox="0 0 46 46" fill="none" xmlns="http://www.w3.org/2000/svg">
<rect opacity="0.9" width="46" height="46" rx="23" fill="white"/>
<path fill-rule="evenodd" clip-rule="evenodd" d="M22.721 31.0951C22.9117 31.2622 23.1565 31.3542 23.41 31.3541C23.663 31.3552 23.9077 31.2646 24.099 31.0991C24.7537 30.5262 25.3877 29.9854 25.9577 29.4992C26.0155 29.45 26.0726 29.4013 26.129 29.3531C27.7129 28.09 29.1924 26.7011 30.553 25.2001C31.6527 24.0148 32.2814 22.4685 32.321 20.8521C32.3438 19.4528 31.839 18.0962 30.907 17.0521C29.9914 16.0543 28.6963 15.4905 27.342 15.5001C26.3261 15.4958 25.3388 15.8368 24.542 16.4671C24.1101 16.8049 23.7288 17.203 23.41 17.6491C23.0912 17.203 22.71 16.8049 22.278 16.4671C21.4812 15.8368 20.494 15.4958 19.478 15.5001C18.1235 15.4918 16.8287 16.0571 15.914 17.0561C14.982 18.1002 14.4772 19.4568 14.5 20.8561C14.5404 22.471 15.1687 24.0156 16.267 25.2001C17.629 26.7009 19.1098 28.0894 20.695 29.3521C21.307 29.8741 22.001 30.4661 22.721 31.0951ZM16.678 17.7591C17.3976 16.9765 18.4149 16.535 19.478 16.5441C20.2645 16.5374 21.0298 16.7988 21.648 17.2851C22.1298 17.6726 22.5365 18.1451 22.848 18.6791C22.9669 18.8785 23.1819 19.0006 23.414 19.0006C23.6461 19.0006 23.8611 18.8785 23.98 18.6791C24.2916 18.1451 24.6983 17.6727 25.18 17.2851C25.7948 16.7982 26.5567 16.5345 27.341 16.5371C28.4042 16.5279 29.4215 16.9694 30.141 17.7521C30.8964 18.6057 31.3024 19.7126 31.278 20.8521C31.2381 22.2235 30.6945 23.5321 29.751 24.5281C28.4266 25.9813 26.9887 27.3269 25.451 28.5521C24.835 29.0771 24.138 29.6721 23.408 30.3071C22.682 29.6731 21.986 29.0791 21.371 28.5551C19.8333 27.3299 18.3954 25.9843 17.071 24.5311C16.1273 23.5366 15.5827 22.2295 15.541 20.8591C15.5166 19.7196 15.9226 18.6127 16.678 17.7591Z" fill="black"/>
<path d="M23.41 31.3541L23.4111 31.1041H23.4099L23.41 31.3541ZM22.721 31.0951L22.8858 30.9071L22.8855 30.9068L22.721 31.0951ZM24.099 31.0991L24.2626 31.2882L24.2637 31.2872L24.099 31.0991ZM25.9577 29.4992L26.1199 29.6895L26.1199 29.6894L25.9577 29.4992ZM26.129 29.3531L25.973 29.1576L25.9667 29.1629L26.129 29.3531ZM30.553 25.2001L30.3697 25.0301L30.3678 25.0322L30.553 25.2001ZM32.321 20.8521L32.5709 20.8582L32.571 20.8562L32.321 20.8521ZM30.907 17.0521L31.0935 16.8856L31.0912 16.8831L30.907 17.0521ZM27.342 15.5001L27.3409 15.7501L27.3438 15.7501L27.342 15.5001ZM24.542 16.4671L24.696 16.6641L24.6971 16.6632L24.542 16.4671ZM23.41 17.6491L23.2066 17.7945L23.41 18.0791L23.6134 17.7945L23.41 17.6491ZM22.278 16.4671L22.1229 16.6632L22.124 16.6641L22.278 16.4671ZM19.478 15.5001L19.4765 15.7501L19.4791 15.7501L19.478 15.5001ZM15.914 17.0561L15.7296 16.8873L15.7275 16.8896L15.914 17.0561ZM14.5 20.8561L14.25 20.8602L14.2501 20.8624L14.5 20.8561ZM16.267 25.2001L16.4522 25.0321L16.4503 25.0301L16.267 25.2001ZM20.695 29.3521L20.8573 29.1618L20.8508 29.1566L20.695 29.3521ZM19.478 16.5441L19.4759 16.7941L19.4801 16.7941L19.478 16.5441ZM16.678 17.7591L16.4939 17.5899L16.4908 17.5934L16.678 17.7591ZM21.648 17.2851L21.8047 17.0903L21.8026 17.0886L21.648 17.2851ZM22.848 18.6791L22.632 18.8051L22.6333 18.8072L22.848 18.6791ZM23.98 18.6791L24.1947 18.8072L24.1959 18.8051L23.98 18.6791ZM25.18 17.2851L25.0248 17.0891L25.0233 17.0903L25.18 17.2851ZM27.341 16.5371L27.3402 16.7871L27.3432 16.7871L27.341 16.5371ZM30.141 17.7521L30.3282 17.5864L30.3251 17.5829L30.141 17.7521ZM31.278 20.8521L31.5279 20.8594L31.528 20.8575L31.278 20.8521ZM29.751 24.5281L29.5695 24.3562L29.5662 24.3597L29.751 24.5281ZM25.451 28.5521L25.2951 28.3565L25.2888 28.3619L25.451 28.5521ZM23.408 30.3071L23.2436 30.4954L23.4077 30.6388L23.5721 30.4957L23.408 30.3071ZM21.371 28.5551L21.5332 28.3647L21.5268 28.3596L21.371 28.5551ZM17.071 24.5311L17.2558 24.3627L17.2524 24.359L17.071 24.5311ZM15.541 20.8591L15.2911 20.8645L15.2911 20.8667L15.541 20.8591ZM23.4099 31.1041C23.2171 31.1042 23.0308 31.0342 22.8858 30.9071L22.5563 31.2832C22.7925 31.4902 23.096 31.6042 23.4101 31.6041L23.4099 31.1041ZM23.9354 30.9101C23.7899 31.036 23.6036 31.105 23.4111 31.1041L23.4089 31.6041C23.7223 31.6055 24.0256 31.4932 24.2626 31.2882L23.9354 30.9101ZM25.7955 29.309C25.2256 29.7951 24.5904 30.3369 23.9344 30.911L24.2637 31.2872C24.9169 30.7155 25.5498 30.1757 26.1199 29.6895L25.7955 29.309ZM25.9667 29.1629C25.9104 29.2111 25.8533 29.2598 25.7955 29.309L26.1199 29.6894C26.1777 29.6402 26.2348 29.5915 26.2913 29.5433L25.9667 29.1629ZM30.3678 25.0322C29.0162 26.5233 27.5465 27.9029 25.9731 29.1577L26.2849 29.5486C27.8793 28.2771 29.3686 26.879 30.7382 25.368L30.3678 25.0322ZM32.0711 20.846C32.033 22.4015 31.4279 23.8894 30.3697 25.0301L30.7363 25.3701C31.8774 24.1401 32.5298 22.5356 32.5709 20.8582L32.0711 20.846ZM30.7205 17.2186C31.6107 18.2158 32.0928 19.5115 32.071 20.8481L32.571 20.8562C32.5948 19.3941 32.0673 17.9765 31.0935 16.8856L30.7205 17.2186ZM27.3438 15.7501C28.6274 15.741 29.8549 16.2754 30.7228 17.2211L31.0912 16.8831C30.1278 15.8332 28.7651 15.24 27.3402 15.2501L27.3438 15.7501ZM24.6971 16.6632C25.4494 16.068 26.3817 15.746 27.3409 15.7501L27.3431 15.2501C26.2704 15.2456 25.2281 15.6055 24.3869 16.2711L24.6971 16.6632ZM23.6134 17.7945C23.9183 17.3678 24.2829 16.9871 24.696 16.6641L24.388 16.2702C23.9372 16.6227 23.5393 17.0382 23.2066 17.5038L23.6134 17.7945ZM22.124 16.6641C22.5371 16.9871 22.9017 17.3678 23.2066 17.7945L23.6134 17.5038C23.2807 17.0382 22.8828 16.6227 22.432 16.2702L22.124 16.6641ZM19.4791 15.7501C20.4384 15.746 21.3706 16.068 22.1229 16.6632L22.4331 16.2711C21.5919 15.6055 20.5496 15.2456 19.4769 15.2501L19.4791 15.7501ZM16.0984 17.2249C16.9654 16.278 18.1926 15.7422 19.4765 15.7501L19.4796 15.2501C18.0544 15.2413 16.692 15.8361 15.7296 16.8873L16.0984 17.2249ZM14.75 20.8521C14.7282 19.5155 15.2104 18.2198 16.1005 17.2226L15.7275 16.8896C14.7537 17.9805 14.2262 19.3981 14.25 20.8602L14.75 20.8521ZM16.4503 25.0301C15.3934 23.8903 14.7888 22.4039 14.7499 20.8499L14.2501 20.8624C14.292 22.5381 14.944 24.1409 16.0837 25.3701L16.4503 25.0301ZM20.8508 29.1566C19.276 27.9023 17.8051 26.523 16.4521 25.0321L16.0819 25.3681C17.4529 26.8789 18.9435 28.2766 20.5392 29.5477L20.8508 29.1566ZM22.8855 30.9068C22.1642 30.2767 21.4691 29.6838 20.8572 29.1619L20.5328 29.5423C21.1449 30.0644 21.8378 30.6555 22.5565 31.2834L22.8855 30.9068ZM19.4801 16.2941C18.3463 16.2845 17.2614 16.7552 16.494 17.5899L16.862 17.9283C17.5338 17.1977 18.4834 16.7856 19.4759 16.7941L19.4801 16.2941ZM21.8026 17.0886C21.1398 16.5672 20.3192 16.287 19.4759 16.2941L19.4801 16.7941C20.2098 16.7879 20.9199 17.0304 21.4934 17.4816L21.8026 17.0886ZM23.064 18.5532C22.7371 17.9927 22.3103 17.4969 21.8047 17.0903L21.4913 17.4799C21.9493 17.8483 22.3359 18.2974 22.6321 18.8051L23.064 18.5532ZM23.414 18.7506C23.2699 18.7506 23.1365 18.6748 23.0627 18.5511L22.6333 18.8072C22.7973 19.0822 23.0938 19.2506 23.414 19.2506V18.7506ZM23.7653 18.5511C23.6915 18.6748 23.5581 18.7506 23.414 18.7506V19.2506C23.7342 19.2506 24.0307 19.0822 24.1947 18.8072L23.7653 18.5511ZM25.0233 17.0903C24.5178 17.497 24.091 17.9928 23.7641 18.5531L24.1959 18.8051C24.4921 18.2975 24.8788 17.8483 25.3367 17.4799L25.0233 17.0903ZM27.3418 16.2871C26.5009 16.2843 25.684 16.5671 25.0248 17.0891L25.3352 17.4811C25.9056 17.0294 26.6125 16.7847 27.3402 16.7871L27.3418 16.2871ZM30.3251 17.5829C29.5577 16.7481 28.4727 16.2773 27.3388 16.2871L27.3432 16.7871C28.3356 16.7785 29.2853 17.1906 29.957 17.9213L30.3251 17.5829ZM31.528 20.8575C31.5537 19.655 31.1253 18.4871 30.3282 17.5864L29.9538 17.9178C30.6675 18.7243 31.0511 19.7701 31.0281 20.8468L31.528 20.8575ZM29.9325 24.7001C30.9183 23.6594 31.4862 22.2922 31.5279 20.8594L31.0281 20.8449C30.99 22.1548 30.4708 23.4048 29.5695 24.3562L29.9325 24.7001ZM25.6068 28.7476C27.1549 27.5141 28.6024 26.1595 29.9358 24.6965L29.5662 24.3597C28.2507 25.8031 26.8226 27.1396 25.2952 28.3566L25.6068 28.7476ZM23.5721 30.4957C24.3011 29.8616 24.9972 29.2673 25.6132 28.7424L25.2888 28.3619C24.6728 28.8869 23.975 29.4826 23.2439 30.1185L23.5721 30.4957ZM21.2089 28.7454C21.8238 29.2694 22.5188 29.8625 23.2436 30.4954L23.5724 30.1188C22.8452 29.4837 22.1482 28.8889 21.5331 28.3648L21.2089 28.7454ZM16.8862 24.6995C18.2196 26.1625 19.6671 27.5172 21.2152 28.7506L21.5268 28.3596C19.9994 27.1426 18.5712 25.8061 17.2558 24.3627L16.8862 24.6995ZM15.2911 20.8667C15.3347 22.2985 15.9037 23.6641 16.8897 24.7032L17.2524 24.359C16.3509 23.4091 15.8307 22.1605 15.7909 20.8515L15.2911 20.8667ZM16.4908 17.5934C15.6937 18.4941 15.2653 19.662 15.2911 20.8645L15.7909 20.8538C15.7679 19.7771 16.1515 18.7313 16.8652 17.9248L16.4908 17.5934Z" fill="black"/>
</svg>
