<svg width="46" height="46" viewBox="0 0 46 46" fill="none" xmlns="http://www.w3.org/2000/svg">
<path opacity="0.9" fill-rule="evenodd" clip-rule="evenodd" d="M23 0C35.7025 0 46 10.2975 46 23C46 35.7025 35.7025 46 23 46C10.2975 46 0 35.7025 0 23C0 10.2975 10.2975 0 23 0Z" fill="white"/>
<path fill-rule="evenodd" clip-rule="evenodd" d="M11.2 23.1163L15.233 27.0963C15.4939 27.3534 15.9139 27.3503 16.171 27.0893C16.4281 26.8284 16.4249 26.4084 16.164 26.1513L13.282 23.3073L34.337 23.3073C34.7034 23.3073 35.0005 23.0103 35.0005 22.6438C35.0005 22.2774 34.7034 21.9803 34.337 21.9803L13.28 21.9803L16.162 19.1363C16.3308 18.97 16.3981 18.7263 16.3384 18.4969C16.2788 18.2676 16.1014 18.0875 15.8729 18.0244C15.6445 17.9614 15.3998 18.025 15.231 18.1913L11.198 22.1713C11.0714 22.2959 11.0001 22.4662 11.0001 22.6438C11.0001 22.8215 11.0714 22.9917 11.198 23.1163H11.2Z" fill="#1A1824"/>
</svg>
