<svg width="16" height="15" viewBox="0 0 16 15" fill="none" xmlns="http://www.w3.org/2000/svg">
<path fill-rule="evenodd" clip-rule="evenodd" d="M4.92001 12.1998L7.51001 14.7898C7.63777 14.9238 7.81485 14.9996 8.00001 14.9996C8.18516 14.9996 8.36224 14.9238 8.49001 14.7898L11.08 12.1998H14.3C14.489 12.2113 14.6738 12.1412 14.8076 12.0074C14.9415 11.8735 15.0115 11.6887 15 11.4998V1.69976C15.0115 1.51081 14.9415 1.32599 14.8076 1.19214C14.6738 1.05828 14.489 0.988242 14.3 0.999762H1.70001C1.51106 0.988242 1.32624 1.05828 1.19238 1.19214C1.05853 1.32599 0.988486 1.51081 1.00001 1.69976V11.4998C0.988486 11.6887 1.05853 11.8735 1.19238 12.0074C1.32624 12.1412 1.51106 12.2113 1.70001 12.1998H4.92001ZM5.20001 10.7998H2.40001V2.39976H13.6V10.7998H10.8C10.6138 10.7945 10.4346 10.8713 10.31 11.0098L8.00001 13.3198L5.69001 11.0098C5.56531 10.8714 5.38621 10.7946 5.20001 10.7998Z" fill="#34C47C"/>
<path opacity="0.5" fill-rule="evenodd" clip-rule="evenodd" d="M10.8 5.89976H5.20001C5.01106 5.91128 4.82624 5.84124 4.69238 5.70738C4.55853 5.57353 4.48849 5.38871 4.50001 5.19976C4.48849 5.01081 4.55853 4.82599 4.69238 4.69214C4.82624 4.55828 5.01106 4.48824 5.20001 4.49976H10.8C10.989 4.48824 11.1738 4.55828 11.3076 4.69214C11.4415 4.82599 11.5115 5.01081 11.5 5.19976C11.5115 5.38871 11.4415 5.57353 11.3076 5.70738C11.1738 5.84124 10.989 5.91128 10.8 5.89976Z" fill="#34C47C"/>
<path opacity="0.5" fill-rule="evenodd" clip-rule="evenodd" d="M10.8 8.6998H5.2C4.8134 8.6998 4.5 8.3864 4.5 7.9998C4.5 7.61321 4.8134 7.2998 5.2 7.2998H10.8C11.1866 7.2998 11.5 7.61321 11.5 7.9998C11.5 8.3864 11.1866 8.6998 10.8 8.6998Z" fill="#34C47C"/>
</svg>
