<svg width="21" height="20" viewBox="0 0 21 20" fill="none" xmlns="http://www.w3.org/2000/svg">
<path fill-rule="evenodd" clip-rule="evenodd" d="M10.165 19.9955C15.6746 19.9955 20.141 15.5315 20.141 10.0249C20.141 4.51822 15.6746 0.0541992 10.165 0.0541992C4.65543 0.0541992 0.189026 4.51822 0.189026 10.0249C0.189026 15.5315 4.65543 19.9955 10.165 19.9955Z" fill="#34C47C"/>
<path fill-rule="evenodd" clip-rule="evenodd" d="M9.38691 13.5392L15.1736 7.75495C15.2682 7.66068 15.3213 7.53263 15.3213 7.39909C15.3213 7.26554 15.2682 7.13749 15.1736 7.04322L14.4613 6.33655C14.3671 6.24207 14.2392 6.18896 14.1058 6.18896C13.9725 6.18896 13.8445 6.24207 13.7504 6.33655L9.03038 11.0544L6.82638 8.84642C6.6294 8.65069 6.31136 8.65069 6.11438 8.84642L5.40238 9.56242C5.20653 9.75925 5.20653 10.0773 5.40238 10.2742L8.67464 13.5435C8.76899 13.638 8.89708 13.6912 9.03064 13.6912C9.16421 13.6912 9.2923 13.638 9.38664 13.5435L9.38691 13.5392Z" fill="white"/>
</svg>
