<svg width="46" height="46" viewBox="0 0 46 46" fill="none" xmlns="http://www.w3.org/2000/svg">
<path fill-rule="evenodd" clip-rule="evenodd" d="M10.884 24.6571L14.917 28.6371C15.178 28.8942 15.5979 28.8911 15.855 28.6301C16.1121 28.3691 16.109 27.9492 15.848 27.6921L12.966 24.8481L34.021 24.8481C34.3875 24.8481 34.6845 24.551 34.6845 24.1846C34.6845 23.8182 34.3875 23.5211 34.021 23.5211L12.964 23.5211L15.846 20.6771C16.0148 20.5108 16.0821 20.2671 16.0225 20.0377C15.9628 19.8084 15.7854 19.6283 15.557 19.5652C15.3285 19.5022 15.0838 19.5658 14.915 19.7321L10.882 23.7121C10.7554 23.8367 10.6841 24.0069 10.6841 24.1846C10.6841 24.3622 10.7554 24.5325 10.882 24.6571H10.884Z" fill="#1A1824"/>
</svg>
