<svg width="12" height="14" viewBox="0 0 12 14" fill="none" xmlns="http://www.w3.org/2000/svg">
<path fill-rule="evenodd" clip-rule="evenodd" d="M4.87415 13.5324C4.98362 13.6506 5.06457 13.7381 5.11 13.79C5.23776 13.924 5.41484 13.9999 5.6 13.9999C5.78516 13.9999 5.96224 13.924 6.09 13.79C6.65 13.23 11.2 8.54 11.2 5.6C11.2 2.50721 8.69279 0 5.6 0C2.50721 0 0 2.50721 0 5.6C0 8.26739 3.80295 12.3753 4.87415 13.5324ZM1.4 5.6C1.40659 3.28314 3.28314 1.40659 5.6 1.4C7.91686 1.40659 9.79341 3.28314 9.8 5.6C9.8 7.35 7.14 10.64 5.6 12.25C4.06 10.64 1.4 7.35 1.4 5.6Z" fill="#34C47C"/>
<path opacity="0.5" fill-rule="evenodd" clip-rule="evenodd" d="M5.4 6.8C6.1732 6.8 6.8 6.1732 6.8 5.4C6.8 4.6268 6.1732 4 5.4 4C4.6268 4 4 4.6268 4 5.4C4 6.1732 4.6268 6.8 5.4 6.8Z" fill="#34C47C"/>
</svg>
