<svg width="14" height="15" viewBox="0 0 14 15" fill="none" xmlns="http://www.w3.org/2000/svg">
<path fill-rule="evenodd" clip-rule="evenodd" d="M1.70001 13.9999H12.9C13.089 14.0114 13.2738 13.9414 13.4076 13.8075C13.5415 13.6737 13.6115 13.4889 13.6 13.2999V12.5999C13.5934 10.283 11.7169 8.40649 9.40001 8.3999H5.20001C2.88315 8.40649 1.0066 10.283 1.00001 12.5999V13.2999C0.988486 13.4889 1.05853 13.6737 1.19238 13.8075C1.32624 13.9414 1.51106 14.0114 1.70001 13.9999ZM12.2 12.5999H2.40001C2.4044 11.0553 3.65543 9.8043 5.20001 9.7999H9.40001C10.9446 9.8043 12.1956 11.0553 12.2 12.5999Z" fill="#34C47C"/>
<path opacity="0.5" fill-rule="evenodd" clip-rule="evenodd" d="M5 2.8C5.00439 1.25543 6.25543 0.00439426 7.8 0C9.34457 0.00439426 10.5956 1.25543 10.6 2.8V4.2C10.6 5.20034 10.0663 6.1247 9.2 6.62487C8.33368 7.12504 7.26632 7.12504 6.4 6.62487C5.53368 6.1247 5 5.20034 5 4.2V2.8ZM8.57324 5.23243C9.05013 4.95163 9.33718 4.43424 9.323 3.881V3.119C9.33718 2.56576 9.05013 2.04837 8.57324 1.76757C8.09634 1.48678 7.50466 1.48678 7.02776 1.76757C6.55087 2.04837 6.26382 2.56576 6.278 3.119V3.881C6.26382 4.43424 6.55087 4.95163 7.02776 5.23243C7.50466 5.51322 8.09634 5.51322 8.57324 5.23243Z" fill="#34C47C"/>
</svg>
