<svg width="13" height="16" viewBox="0 0 13 16" fill="none" xmlns="http://www.w3.org/2000/svg">
<path fill-rule="evenodd" clip-rule="evenodd" d="M1.70001 14.9998H11.5C11.689 15.0113 11.8738 14.9412 12.0076 14.8074C12.1415 14.6735 12.2115 14.4887 12.2 14.2998V4.49976C12.2053 4.31353 12.1285 4.13438 11.99 4.00976L9.19001 1.20976C9.06531 1.07138 8.88621 0.994627 8.70001 0.999762H1.70001C1.51106 0.988242 1.32624 1.05828 1.19238 1.19214C1.05853 1.32599 0.988486 1.51081 1.00001 1.69976V14.2998C0.988486 14.4887 1.05853 14.6735 1.19238 14.8074C1.32624 14.9412 1.51106 15.0113 1.70001 14.9998ZM10.8 13.5998H2.40001V2.39976H8.42001L10.8 4.77976V13.5998Z" fill="#34C47C"/>
<path opacity="0.4" fill-rule="evenodd" clip-rule="evenodd" d="M9.89002 5.41015L7.79002 3.31015C7.59529 3.09338 7.27858 3.0358 7.02002 3.17015C6.76362 3.27415 6.59699 3.52448 6.60002 3.80115V6.60115H9.40002C9.68181 6.62345 9.94221 6.44985 10.03 6.18115C10.1649 5.92234 10.1073 5.60502 9.89002 5.41015V5.41015Z" fill="#34C47C"/>
</svg>
