<svg width="14" height="10" viewBox="0 0 14 10" fill="none" xmlns="http://www.w3.org/2000/svg">
<path fill-rule="evenodd" clip-rule="evenodd" d="M0.651125 9.10112H12.3511C12.5266 9.11175 12.6981 9.04669 12.8224 8.92241C12.9467 8.79813 13.0118 8.62656 13.0011 8.45113V0.651125C13.0118 0.475692 12.9467 0.304115 12.8224 0.179838C12.6981 0.0555605 12.5266 -0.00950168 12.3511 0.00112469H0.651125C0.475692 -0.00950168 0.304115 0.0555605 0.179838 0.179838C0.0555605 0.304115 -0.00950168 0.475692 0.00112469 0.651125V8.45113C-0.00950168 8.62656 0.0555605 8.79813 0.179838 8.92241C0.304115 9.04669 0.475692 9.11175 0.651125 9.10112ZM11.7011 7.80112H1.30112V1.30112H11.7011V7.80112Z" fill="#34C47C"/>
<rect opacity="0.5" x="3" y="3" width="7.8" height="1.3" fill="#34C47C"/>
</svg>
