<svg width="19" height="16" viewBox="0 0 19 16" fill="none" xmlns="http://www.w3.org/2000/svg">
<path fill-rule="evenodd" clip-rule="evenodd" d="M13.7539 2.70301H17.2769C17.8216 2.70466 18.2624 3.14636 18.2629 3.69101V13.568C18.2624 14.1134 17.8204 14.5555 17.2749 14.556H1.47494C0.92951 14.5555 0.48749 14.1134 0.486938 13.568V3.69101C0.48749 3.14558 0.92951 2.70356 1.47494 2.70301H4.99794L5.76094 0.713008C5.849 0.484207 6.06878 0.333184 6.31394 0.333008H12.4339C12.6791 0.333184 12.8989 0.484207 12.9869 0.713008L13.7539 2.70301ZM1.67194 13.37H17.0769L17.0799 13.371V3.88901H13.3469C13.1018 3.88883 12.882 3.73781 12.7939 3.50901L12.0309 1.51901H6.72194L5.95894 3.50901C5.87088 3.73781 5.6511 3.88883 5.40594 3.88901H1.67194V13.37Z" fill="white"/>
<path fill-rule="evenodd" clip-rule="evenodd" d="M5.20789 8.15482C5.20789 5.85289 7.07396 3.98682 9.37589 3.98682C11.6767 3.98957 13.5411 5.85404 13.5439 8.15482C13.5439 10.4567 11.6778 12.3228 9.37589 12.3228C7.07396 12.3228 5.20789 10.4567 5.20789 8.15482ZM6.39289 8.15482C6.39289 9.80228 7.72842 11.1378 9.37589 11.1378C11.0227 11.1362 12.3572 9.8016 12.3589 8.15482C12.3589 6.50735 11.0234 5.17182 9.37589 5.17182C7.72842 5.17182 6.39289 6.50735 6.39289 8.15482Z" fill="white"/>
</svg>
