<svg width="14" height="14" viewBox="0 0 14 14" fill="none" xmlns="http://www.w3.org/2000/svg">
<path fill-rule="evenodd" clip-rule="evenodd" d="M6.307 14H7.693C7.98612 13.9932 8.24028 13.7954 8.319 13.513L8.943 11.713L10.606 12.545C10.8851 12.6776 11.2172 12.6222 11.438 12.406L12.408 11.436C12.6242 11.2152 12.6796 10.8831 12.547 10.604L11.715 8.941L13.515 8.317C13.7959 8.23776 13.9926 7.98481 14 7.693V6.307C13.9918 6.01351 13.7923 5.76003 13.509 5.683L11.709 5.059L12.541 3.396C12.6736 3.11695 12.6182 2.78478 12.402 2.564L11.432 1.594C11.2112 1.37785 10.8791 1.32235 10.6 1.455L8.941 2.285L8.317 0.485C8.23776 0.204054 7.98481 0.00744847 7.693 0H6.307C6.01613 0.00943514 5.76507 0.20664 5.687 0.487L5.063 2.287L3.4 1.455C3.11908 1.32148 2.78457 1.3787 2.564 1.598L1.594 2.568C1.37785 2.78878 1.32235 3.12095 1.455 3.4L2.285 5.059L0.485 5.683C0.204054 5.76224 0.00744847 6.01519 0 6.307V7.693C0.00822988 7.98649 0.207681 8.23997 0.491 8.317L2.291 8.941L1.459 10.604C1.32635 10.8831 1.38185 11.2152 1.598 11.436L2.568 12.406C2.7913 12.6171 3.12019 12.6721 3.4 12.545L5.059 11.715L5.683 13.515C5.76224 13.7959 6.01519 13.9926 6.307 14ZM7.209 12.614H6.793L6.167 10.74C5.96749 10.289 5.44819 10.0752 4.989 10.255L3.189 11.155L2.912 10.878L3.812 9.078C3.97757 8.61903 3.76773 8.10935 3.327 7.9L1.457 7.28V6.864L3.328 6.24C3.77896 6.04049 3.99276 5.52119 3.813 5.062L2.913 3.262L3.19 2.985L4.99 3.885C5.44897 4.05057 5.95865 3.84073 6.168 3.4L6.792 1.525H7.208L7.832 3.4C8.03265 3.85033 8.55234 4.06279 9.011 3.882L10.811 2.982L11.088 3.259L10.188 5.059C10.0224 5.51797 10.2323 6.02765 10.673 6.237L12.544 6.861V7.276L10.673 7.9C10.2204 8.09957 10.0063 8.62097 10.188 9.081L11.088 10.881L10.811 11.158L9.011 10.258C8.55203 10.0924 8.04235 10.3023 7.833 10.743L7.209 12.614Z" fill="#34C47C"/>
<path opacity="0.5" fill-rule="evenodd" clip-rule="evenodd" d="M6.99998 8.46895C7.77317 8.46895 8.39998 7.84214 8.39998 7.06895C8.39998 6.29575 7.77317 5.66895 6.99998 5.66895C6.22678 5.66895 5.59998 6.29575 5.59998 7.06895C5.59998 7.84214 6.22678 8.46895 6.99998 8.46895Z" fill="#34C47C"/>
</svg>
