<svg width="15" height="16" viewBox="0 0 15 16" fill="none" xmlns="http://www.w3.org/2000/svg">
<path opacity="0.5" fill-rule="evenodd" clip-rule="evenodd" d="M0.461586 14.3002L0.461586 1.70024C0.448294 1.51129 0.529112 1.32647 0.683559 1.19262C0.838007 1.05876 1.05126 0.988719 1.26928 1.00024H5.30774V2.40024H2.07697L2.07697 13.6002H5.30774V15.0002H1.26928C1.05126 15.0118 0.838007 14.9417 0.683559 14.8079C0.529112 14.674 0.448294 14.4892 0.461586 14.3002Z" fill="#34C47C"/>
<path fill-rule="evenodd" clip-rule="evenodd" d="M9.91154 11.9899C10.0662 11.8621 10.1537 11.685 10.1537 11.4999C10.1537 11.3147 10.0662 11.1376 9.91154 11.0099L7.24615 8.69986H14.1923C14.6384 8.69986 15 8.38646 15 7.99986C15 7.61326 14.6384 7.29986 14.1923 7.29986L7.24615 7.29986L9.91154 4.98986C10.2184 4.71845 10.2159 4.28348 9.90586 4.01478C9.59582 3.74608 9.09393 3.74388 8.78077 4.00986L4.74231 7.50986C4.58768 7.63762 4.50017 7.8147 4.50017 7.99986C4.50017 8.18501 4.58768 8.36209 4.74231 8.48986L8.78077 11.9899C8.92819 12.1239 9.13251 12.1997 9.34615 12.1997C9.5598 12.1997 9.76412 12.1239 9.91154 11.9899Z" fill="#34C47C"/>
</svg>
