<svg width="281" height="234" viewBox="0 0 281 234" fill="none" xmlns="http://www.w3.org/2000/svg">
<path opacity="0.1" fill-rule="evenodd" clip-rule="evenodd" d="M163.678 31.879C145.728 31.255 128.632 25.465 112.307 19.128C95.982 12.791 79.812 5.77001 62.292 2.41301C51.023 0.254009 38.135 -0.0509911 29.057 5.98601C20.318 11.807 17.494 21.828 15.977 31.136C14.834 38.136 14.163 45.509 17.292 52.062C19.466 56.614 23.322 60.439 25.992 64.799C35.275 79.967 28.713 98.673 18.656 113.484C13.941 120.433 8.46299 127.067 4.82199 134.457C1.18099 141.847 -0.503011 150.327 2.68399 157.872C5.83999 165.356 13.365 170.972 21.516 174.917C38.071 182.942 57.572 185.237 76.601 186.537C118.712 189.417 161.044 188.17 203.265 186.922C218.891 186.459 234.584 185.991 249.955 183.576C258.492 182.234 267.303 180.108 273.502 174.969C281.368 168.446 283.318 157.403 278.045 149.222C269.203 135.503 244.763 132.097 238.575 117.374C235.175 109.269 238.667 100.243 243.612 92.725C254.218 76.603 271.994 62.457 272.928 44.025C273.571 31.368 265.028 18.692 251.813 12.701C237.965 6.42501 218.758 7.21201 208.546 17.601C198.017 28.311 179.529 32.428 163.678 31.879Z" fill="#34C47C"/>
<path opacity="0.1" fill-rule="evenodd" clip-rule="evenodd" d="M135.094 228.89C181.655 228.89 219.401 223.786 219.401 217.491C219.401 211.195 181.655 206.092 135.094 206.092C88.5325 206.092 50.787 211.195 50.787 217.491C50.787 223.786 88.5325 228.89 135.094 228.89Z" fill="#34C47C"/>
<rect x="179.279" y="81.337" width="2.457" height="20.241" rx="1.2285" fill="#3A3768"/>
<rect x="97.619" y="65.478" width="1.378" height="6.664" rx="0.689" fill="#3A3768"/>
<rect x="97.569" y="77.681" width="1.553" height="11.598" rx="0.7765" fill="#3A3768"/>
<rect x="97.593" y="93.337" width="1.478" height="11.698" rx="0.739" fill="#3A3768"/>
<rect x="98.3979" y="43.458" width="82.207" height="166.983" rx="38.99" fill="#3A3768"/>
<path fill-rule="evenodd" clip-rule="evenodd" d="M169.009 47.796H159.579V48.93C159.578 50.3556 159.011 51.7226 158.003 52.7301C156.994 53.7376 155.627 54.3031 154.201 54.302H124.211C122.785 54.3031 121.418 53.7376 120.409 52.7301C119.4 51.7226 118.833 50.3556 118.833 48.93V47.796H110.005C108.274 47.7955 106.614 48.4826 105.389 49.7063C104.165 50.93 103.476 52.5899 103.476 54.321V199.567C103.476 201.298 104.165 202.958 105.389 204.182C106.614 205.405 108.274 206.093 110.005 206.092H169.005C170.736 206.093 172.396 205.405 173.621 204.182C174.845 202.958 175.533 201.298 175.534 199.567V54.332C175.536 52.5997 174.85 50.9375 173.626 49.7116C172.402 48.4857 170.741 47.7965 169.009 47.796Z" fill="#34C47C"/>
<rect x="131.572" y="48.444" width="11.48" height="2.328" rx="1.164" fill="#E6E8EC"/>
<path fill-rule="evenodd" clip-rule="evenodd" d="M146.111 50.93C146.842 50.93 147.434 50.3381 147.434 49.608C147.434 48.8779 146.842 48.286 146.111 48.286C145.38 48.286 144.788 48.8779 144.788 49.608C144.788 50.3381 145.38 50.93 146.111 50.93Z" fill="#E6E8EC"/>
<path fill-rule="evenodd" clip-rule="evenodd" d="M209.067 36.134C209.067 36.134 185.714 34.726 188.467 51.081C188.172 52.7833 189.011 54.4811 190.542 55.281C190.542 55.281 190.584 54.07 192.942 54.481C193.78 54.6199 194.632 54.6609 195.48 54.603C196.623 54.5278 197.711 54.0831 198.58 53.336C198.58 53.336 205.145 50.625 207.697 39.903C207.697 39.903 209.586 37.563 209.511 36.962L205.57 38.645C205.57 38.645 206.918 41.486 205.847 43.845C205.847 43.845 205.719 38.745 204.962 38.855C204.809 38.877 202.915 39.839 202.915 39.839C202.915 39.839 205.231 44.787 203.483 48.385C203.483 48.385 204.146 42.285 202.191 40.196L199.418 41.815C199.418 41.815 202.125 46.927 200.289 51.098C200.289 51.098 200.761 44.698 198.833 42.208L196.32 44.168C196.32 44.168 198.863 49.205 197.313 52.668C197.313 52.668 197.113 45.222 195.777 44.66C194.825 45.4653 193.974 46.383 193.242 47.393C193.242 47.393 194.984 51.052 193.902 52.981C193.902 52.981 193.239 48.019 192.696 47.991C192.696 47.991 190.505 51.279 190.277 53.535C190.385 51.4522 191.036 49.4339 192.166 47.681C190.902 47.92 189.736 48.523 188.81 49.416C188.81 49.416 189.151 47.093 192.71 46.888C192.71 46.888 194.521 44.393 195.004 44.244C195.004 44.244 191.47 43.944 189.327 44.898C189.327 44.898 191.213 42.705 195.654 43.703L198.136 41.677C198.136 41.677 193.482 41.042 191.507 41.744C191.507 41.744 193.779 39.804 198.807 41.217L201.507 39.604C199.429 39.1485 197.301 38.9623 195.175 39.05C195.175 39.05 197.675 37.706 202.3 39.164L204.242 38.296C204.242 38.296 201.335 37.725 200.484 37.634C199.633 37.543 199.584 37.31 199.584 37.31C201.425 37.0031 203.316 37.2132 205.045 37.917C205.045 37.917 209.136 36.392 209.067 36.134Z" fill="#34C47C"/>
<path fill-rule="evenodd" clip-rule="evenodd" d="M185.113 28.86C185.113 28.86 174.574 28.225 175.805 35.615C175.672 36.3848 176.051 37.1523 176.743 37.515C176.743 37.515 176.762 36.961 177.827 37.152C178.205 37.2154 178.589 37.2339 178.972 37.207C179.489 37.1726 179.981 36.9699 180.372 36.63C180.372 36.63 183.34 35.405 184.494 30.559C184.494 30.559 185.345 29.503 185.312 29.231L183.531 29.991C183.872 30.7297 183.918 31.5703 183.661 32.342C183.661 32.342 183.603 30.042 183.261 30.091C183.192 30.091 182.334 30.537 182.334 30.537C182.334 30.537 183.383 32.774 182.592 34.398C182.592 34.398 182.892 31.643 182.007 30.698L180.753 31.441C180.753 31.441 181.976 33.75 181.147 35.635C181.147 35.635 181.361 32.744 180.49 31.618L179.355 32.505C179.355 32.505 180.503 34.781 179.804 36.344C179.804 36.344 179.71 32.979 179.104 32.724C178.673 33.088 178.288 33.5031 177.958 33.96C177.958 33.96 178.746 35.623 178.258 36.485C178.258 36.485 177.958 34.242 177.703 34.231C177.189 34.9886 176.818 35.8343 176.61 36.726C176.659 35.785 176.954 34.8732 177.464 34.081C176.893 34.1891 176.366 34.4616 175.947 34.865C175.947 34.865 176.102 33.814 177.708 33.723C178.011 33.2879 178.358 32.8857 178.745 32.523C177.878 32.4505 177.006 32.5525 176.179 32.823C176.964 32.1404 178.056 31.9337 179.036 32.282L180.145 31.367C179.15 31.2194 178.137 31.2295 177.145 31.397C177.145 31.397 178.171 30.521 180.445 31.159L181.665 30.43C180.726 30.2243 179.764 30.1412 178.803 30.183C179.844 29.7922 180.995 29.81 182.023 30.233L182.897 29.842C182.897 29.842 181.582 29.584 181.197 29.542C180.812 29.5 180.797 29.395 180.797 29.395C181.629 29.2566 182.484 29.3525 183.265 29.672C183.904 29.457 184.522 29.1853 185.113 28.86Z" fill="#34C47C"/>
<path opacity="0.1" fill-rule="evenodd" clip-rule="evenodd" d="M240.677 216.63C244.802 216.63 248.146 216.065 248.146 215.369C248.146 214.673 244.802 214.108 240.677 214.108C236.552 214.108 233.208 214.673 233.208 215.369C233.208 216.065 236.552 216.63 240.677 216.63Z" fill="#34C47C"/>
<path opacity="0.1" fill-rule="evenodd" clip-rule="evenodd" d="M26.261 226.981C30.386 226.981 33.73 226.416 33.73 225.72C33.73 225.024 30.386 224.459 26.261 224.459C22.136 224.459 18.792 225.024 18.792 225.72C18.792 226.416 22.136 226.981 26.261 226.981Z" fill="#34C47C"/>
<path opacity="0.1" fill-rule="evenodd" clip-rule="evenodd" d="M55.153 233.747C59.278 233.747 62.622 233.182 62.622 232.486C62.622 231.79 59.278 231.225 55.153 231.225C51.0279 231.225 47.684 231.79 47.684 232.486C47.684 233.182 51.0279 233.747 55.153 233.747Z" fill="#34C47C"/>
<path fill-rule="evenodd" clip-rule="evenodd" d="M224.327 230.771C230.486 230.771 235.479 229.927 235.479 228.886C235.479 227.845 230.486 227.001 224.327 227.001C218.168 227.001 213.175 227.845 213.175 228.886C213.175 229.927 218.168 230.771 224.327 230.771Z" fill="#34C47C"/>
<path fill-rule="evenodd" clip-rule="evenodd" d="M228.935 225.803C229.443 225.388 229.813 224.828 229.997 224.198C230.164 223.547 229.855 222.867 229.254 222.565C228.572 222.305 227.842 222.779 227.29 223.255C226.811 223.817 226.117 224.151 225.379 224.175C226.137 223.49 226.479 222.458 226.279 221.456C226.247 221.252 226.159 221.061 226.027 220.902C225.65 220.502 224.962 220.669 224.51 220.991C223.068 222.003 222.666 223.963 222.657 225.723C222.577 225.079 222.568 224.428 222.629 223.782C222.687 223.121 222.413 222.473 221.897 222.055C221.557 221.872 221.174 221.782 220.788 221.794C220.138 221.7 219.478 221.888 218.974 222.31C218.48 222.976 218.51 223.895 219.046 224.528C219.582 225.132 220.217 225.639 220.924 226.028C221.461 226.348 221.919 226.785 222.264 227.306C222.306 227.379 222.339 227.456 222.364 227.536H226.416C227.33 227.074 228.177 226.491 228.935 225.803Z" fill="#34C47C"/>
<path fill-rule="evenodd" clip-rule="evenodd" d="M55.538 201.49C55.538 201.49 57.064 203.483 54.838 206.48C52.612 209.477 50.775 212.024 51.51 213.901C51.51 213.901 54.872 208.315 57.61 208.238C60.348 208.161 58.547 204.85 55.538 201.49Z" fill="#34C47C"/>
<path opacity="0.1" fill-rule="evenodd" clip-rule="evenodd" d="M55.539 201.49C55.6721 201.683 55.7769 201.894 55.85 202.117C58.518 205.249 59.941 208.174 57.375 208.246C54.987 208.315 52.122 212.584 51.434 213.662C51.456 213.745 51.484 213.826 51.514 213.909C51.514 213.909 54.876 208.323 57.614 208.246C60.352 208.169 58.548 204.85 55.539 201.49Z" fill="black"/>
<path fill-rule="evenodd" clip-rule="evenodd" d="M58.3699 204.029C58.3699 204.729 58.2919 205.299 58.1949 205.299C58.0979 205.299 58.0199 204.731 58.0199 204.029C58.0199 203.327 58.1199 203.658 58.2139 203.658C58.3079 203.658 58.3699 203.328 58.3699 204.029Z" fill="#FFD037"/>
<path fill-rule="evenodd" clip-rule="evenodd" d="M59.344 204.866C58.728 205.201 58.19 205.404 58.144 205.318C58.098 205.232 58.557 204.891 59.173 204.556C59.789 204.221 59.547 204.464 59.592 204.556C59.637 204.648 59.959 204.531 59.344 204.866Z" fill="#FFD037"/>
<path fill-rule="evenodd" clip-rule="evenodd" d="M47.492 201.49C47.492 201.49 45.967 203.483 48.192 206.48C50.417 209.477 52.255 212.024 51.52 213.901C51.52 213.901 48.161 208.315 45.42 208.238C42.679 208.161 44.477 204.85 47.492 201.49Z" fill="#34C47C"/>
<path opacity="0.1" fill-rule="evenodd" clip-rule="evenodd" d="M47.493 201.49C47.3598 201.683 47.2544 201.894 47.18 202.117C44.512 205.249 43.092 208.174 45.655 208.246C48.046 208.315 50.911 212.584 51.599 213.662C51.5764 213.746 51.5486 213.828 51.516 213.909C51.516 213.909 48.157 208.323 45.416 208.246C42.675 208.169 44.478 204.85 47.493 201.49Z" fill="black"/>
<path fill-rule="evenodd" clip-rule="evenodd" d="M44.658 204.029C44.658 204.729 44.738 205.299 44.835 205.299C44.932 205.299 45.01 204.731 45.01 204.029C45.01 203.327 44.91 203.658 44.816 203.658C44.722 203.658 44.658 203.328 44.658 204.029Z" fill="#FFD037"/>
<path fill-rule="evenodd" clip-rule="evenodd" d="M43.687 204.866C44.303 205.201 44.838 205.404 44.887 205.318C44.936 205.232 44.471 204.891 43.855 204.556C43.239 204.221 43.483 204.464 43.436 204.556C43.389 204.648 43.071 204.531 43.687 204.866Z" fill="#FFD037"/>
<path fill-rule="evenodd" clip-rule="evenodd" d="M45.1429 213.648C45.1429 213.648 49.4029 213.515 50.6899 212.603C51.9769 211.691 57.2439 210.596 57.5599 212.062C57.8759 213.528 63.9599 219.35 59.1549 219.388C54.3499 219.426 47.9779 218.64 46.6959 217.861C45.4139 217.082 45.1429 213.648 45.1429 213.648Z" fill="#A8A8A8"/>
<path opacity="0.2" fill-rule="evenodd" clip-rule="evenodd" d="M59.2429 218.88C54.4339 218.919 48.0659 218.132 46.7839 217.353C45.8099 216.753 45.4189 214.625 45.2889 213.644H45.1429C45.1429 213.644 45.4199 217.076 46.6929 217.858C47.9659 218.64 54.3419 219.424 59.1519 219.385C60.5389 219.385 61.0189 218.885 60.9939 218.149C60.7999 218.597 60.2699 218.871 59.2429 218.88Z" fill="black"/>
<path fill-rule="evenodd" clip-rule="evenodd" d="M79.275 124.27C79.3557 124.347 79.4773 124.363 79.575 124.309C79.4737 124.31 79.3727 124.297 79.275 124.27Z" fill="url(#paint0_linear)"/>
<path fill-rule="evenodd" clip-rule="evenodd" d="M112.509 69.107C111.924 68.935 111.092 68.655 110.085 68.307C111.13 66.9435 111.894 65.386 112.332 63.725L112.246 63.758C112.252 63.7358 112.259 63.7135 112.265 63.6913C112.273 63.6635 112.281 63.6358 112.289 63.608C112.304 63.558 112.318 63.508 112.332 63.458C110.407 64.251 108.274 62.904 106.918 61.182C106.329 60.4346 105.822 59.608 105.315 58.7819C104.654 57.7047 103.994 56.6283 103.154 55.729C102.534 55.0999 101.868 54.5189 101.16 53.991C100.764 53.6068 100.258 53.3558 99.712 53.273C99.203 53.2583 98.758 53.549 98.3078 53.8432C97.993 54.0489 97.6756 54.2563 97.332 54.362C96.7816 54.4877 96.2078 54.4667 95.668 54.301C94.8413 54.1092 94.0261 53.8548 93.2116 53.6007C91.903 53.1924 90.5963 52.7847 89.247 52.638C88.0704 52.4912 86.8758 52.6283 85.763 53.038C85.0483 53.3132 84.5865 53.7621 84.1099 54.2252C83.8471 54.4807 83.5798 54.7406 83.263 54.978C82.4879 55.563 81.0928 55.6662 79.9869 55.7481C79.7202 55.7678 79.4703 55.7863 79.25 55.81C77.8747 55.968 76.4898 56.0265 75.106 55.985C74.3105 55.9132 73.509 55.9431 72.721 56.074C71.074 56.44 69.751 57.765 68.521 59.04C68.1813 59.3307 67.9373 59.7172 67.821 60.149C67.8058 60.2705 67.8058 60.3935 67.821 60.515C67.8082 60.8464 67.8647 61.1768 67.987 61.485C68.36 62.6311 68.8922 63.7191 69.568 64.717C70.1337 65.4106 70.6004 66.1793 70.955 67.001C71.0914 67.4269 71.1635 67.8708 71.169 68.318C71.1535 68.7932 71.1043 69.2667 71.022 69.735C70.804 71.0258 70.4459 72.2889 69.954 73.502C69.6512 74.1311 69.4411 74.8007 69.33 75.49C69.3218 75.6302 69.3218 75.7708 69.33 75.911C69.2841 77.1111 69.9261 78.1268 70.5796 79.1608C71.1079 79.9965 71.6437 80.8442 71.83 81.811C71.8628 81.9897 71.8832 82.1705 71.891 82.352C71.873 83.6822 71.1396 84.8994 69.972 85.537C70.0387 85.563 70.1054 85.5863 70.172 85.6097C70.2054 85.6213 70.2387 85.633 70.272 85.645C70.1752 85.7059 70.075 85.7613 69.972 85.811C70.172 85.889 70.382 85.955 70.593 86.016C69.3177 87.1325 68.2466 88.4627 67.428 89.947C63.695 97.024 38.25 110.906 38.25 110.906C38.25 110.906 38.394 110.986 38.627 111.125C38.533 111.183 38.433 111.25 38.322 111.325C36.122 112.811 30.95 117.146 35.622 122.613C35.622 122.613 39.269 116.778 41.822 114.297C41.938 114.186 42.049 114.084 42.158 113.987C42.2738 114.164 42.3101 114.382 42.258 114.587L58.991 105.06C58.991 105.06 64.938 100.841 66.596 99.887C67.7626 99.154 69.0333 98.6018 70.365 98.249L70.171 98.335C70.7961 98.1605 71.4411 98.0674 72.09 98.058C75.052 98.105 78.258 100.303 79.318 109.01C80.735 120.669 80.078 122.77 79.623 123.059C79.5668 123.055 79.5111 123.044 79.457 123.028C79.4705 123.041 79.4852 123.052 79.501 123.061C79.439 123.057 79.3776 123.046 79.318 123.028C79.383 123.09 79.4756 123.113 79.562 123.089C79.6245 123.107 79.6916 123.099 79.748 123.067H79.973C79.973 123.136 79.9658 123.207 79.9585 123.278C79.9564 123.299 79.9543 123.32 79.9524 123.34C79.9508 123.357 79.9493 123.374 79.948 123.391C79.926 123.391 79.815 123.455 79.948 123.463C79.915 124.12 79.918 124.849 79.948 125.584C78.475 125.667 77.005 125.756 75.716 125.836L75.833 125.218L75.886 124.941C77.015 124.85 78.086 124.514 78.213 123.583C78.49 121.543 75.713 120.453 73.373 120.318C71.033 120.183 56.918 121.136 56.918 121.136C56.918 121.136 54.802 123.908 61.511 124.77C61.711 124.875 61.919 124.992 62.129 125.114C64.8838 126.836 67.5228 128.738 70.029 130.805L70.267 130.996L69.502 131.614C73.0923 132.437 76.5634 144.513 78.8675 152.529C79.2331 153.801 79.5694 154.971 79.872 155.977C82.082 163.325 86.925 163.054 90.936 161.967C94.694 160.944 95.174 149.887 95.218 148.498V148.341L101.899 156.687L102.407 157.322C102.486 157.361 102.562 157.401 102.638 157.439L102.639 157.44C102.755 157.499 102.869 157.558 102.984 157.613C105.273 158.739 108.011 158.412 109.97 156.777C111.929 155.143 112.742 152.508 112.045 150.054C110.439 144.676 107.945 136.729 106.279 133.369C104.892 130.555 103.087 125.885 101.994 122.952C102.136 122.894 102.273 122.827 102.407 122.752C102.407 122.752 102.382 122.622 102.338 122.381L102.407 122.345C101.505 117.563 100.937 112.725 100.707 107.864V107.351C101.916 107.074 102.682 106.963 102.682 106.963L102.704 106.702L102.563 106.732L103.234 98.932C103.234 98.932 105.703 93.612 103.814 91.395C103.24 90.7451 102.856 89.9492 102.705 89.095C102.389 87.055 102.705 83.659 107.105 80.834C113.881 76.479 116.51 72.939 116.51 72.939C116.51 72.939 116.659 70.332 112.509 69.107ZM99.052 74.518V70.918C99.6441 70.8893 100.242 70.9067 100.842 70.9242C101.513 70.9438 102.186 70.9635 102.852 70.918C103.473 70.8745 104.088 70.7706 104.688 70.608L104.993 70.821C103.146 72.2587 101.154 73.4988 99.049 74.521L99.052 74.518ZM79.8474 131.021C79.8459 131.02 79.8445 131.019 79.843 131.018V131.014C79.8445 131.016 79.8459 131.019 79.8474 131.021ZM79.8474 131.021C80.6691 132.35 81.3644 133.754 81.924 135.213C81.904 135.127 81.635 133.871 81.33 132.094C80.8445 131.731 80.3459 131.369 79.8474 131.021Z" fill="url(#paint1_linear)"/>
<path fill-rule="evenodd" clip-rule="evenodd" d="M90.704 128.738L90.404 130.362L90.174 131.604L89.755 133.877L85.695 136.718C85.695 136.718 85.329 136.405 84.724 135.911C82.278 133.854 79.6955 131.964 76.994 130.256C76.3332 129.835 75.6184 129.506 74.869 129.278L90.704 128.738Z" fill="#FFBDC6"/>
<path opacity="0.1" fill-rule="evenodd" clip-rule="evenodd" d="M90.704 128.738L90.404 130.362C89.5086 130.41 88.6106 130.364 87.725 130.223L78.251 130.359C77.804 130.331 77.386 130.298 76.995 130.259C76.3342 129.838 75.6193 129.509 74.87 129.281L90.704 128.738Z" fill="black"/>
<path fill-rule="evenodd" clip-rule="evenodd" d="M87.725 129.944C87.725 129.944 92.459 130.756 92.737 128.735C93.015 126.714 90.299 125.622 88 125.486C85.701 125.35 71.894 126.298 71.894 126.298C71.894 126.298 69.459 129.544 78.254 130.087L87.725 129.944Z" fill="#474463"/>
<path opacity="0.1" fill-rule="evenodd" clip-rule="evenodd" d="M90.704 128.738L90.404 130.362L90.174 131.604L89.755 133.877L85.695 136.718C85.695 136.718 85.329 136.405 84.724 135.911C82.278 133.854 79.6955 131.964 76.994 130.256C76.3332 129.835 75.6184 129.506 74.869 129.278L90.704 128.738Z" fill="black"/>
<path opacity="0.1" fill-rule="evenodd" clip-rule="evenodd" d="M90.704 128.738L90.404 130.362C89.5086 130.41 88.6106 130.364 87.725 130.223L78.251 130.359C77.804 130.331 77.386 130.298 76.995 130.259C76.3342 129.838 75.6193 129.509 74.87 129.281L90.704 128.738Z" fill="black"/>
<path opacity="0.1" fill-rule="evenodd" clip-rule="evenodd" d="M87.7251 129.941C87.7251 129.941 92.4621 130.75 92.7341 128.721C93.0061 126.692 90.2961 125.611 87.9971 125.475C85.6981 125.339 71.8911 126.287 71.8911 126.287C71.8911 126.287 69.4561 129.533 78.2511 130.074L87.7251 129.941Z" fill="black"/>
<rect x="73.311" y="63.264" width="24.768" height="29.353" fill="#474463"/>
<rect opacity="0.1" x="73.311" y="63.397" width="24.768" height="29.353" fill="black"/>
<path fill-rule="evenodd" clip-rule="evenodd" d="M44.283 113.511C43.703 113.743 43.1859 114.108 42.774 114.578C40.274 117.048 36.703 122.844 36.703 122.844C32.132 117.403 37.191 113.103 39.346 111.626C39.87 111.268 40.222 111.072 40.222 111.072L44.283 113.511Z" fill="#FFBDC6"/>
<path fill-rule="evenodd" clip-rule="evenodd" d="M90.4321 72.528C90.4321 72.528 91.6501 81.049 95.8461 83.078C100.042 85.107 90.4321 88.899 90.4321 88.899L77.3051 84.026C77.3051 84.026 84.7491 81.589 83.2601 74.421L90.4321 72.528Z" fill="#FFBDC6"/>
<path fill-rule="evenodd" clip-rule="evenodd" d="M76.357 123.793L76.057 125.412L75.816 126.659L75.402 128.933L71.341 131.772C71.341 131.772 70.975 131.462 70.37 130.972C67.9234 128.914 65.3398 127.025 62.637 125.317C61.9765 124.895 61.2616 124.566 60.512 124.338L76.357 123.793Z" fill="#FFBDC6"/>
<path opacity="0.1" fill-rule="evenodd" clip-rule="evenodd" d="M76.357 123.793L76.057 125.412C75.1616 125.46 74.2636 125.414 73.378 125.273L63.904 125.409C63.457 125.381 63.036 125.348 62.645 125.309C61.9845 124.888 61.2696 124.559 60.52 124.331L76.357 123.793Z" fill="black"/>
<path fill-rule="evenodd" clip-rule="evenodd" d="M73.38 125.01C73.38 125.01 78.117 125.819 78.386 123.793C78.655 121.767 75.951 120.68 73.649 120.544C71.347 120.408 57.549 121.356 57.549 121.356C57.549 121.356 55.111 124.602 63.909 125.145L73.38 125.01Z" fill="#474463"/>
<path opacity="0.1" fill-rule="evenodd" clip-rule="evenodd" d="M75.8179 126.659L75.3989 128.932L71.3379 131.771C71.3379 131.771 70.9719 131.46 70.3669 130.971L75.7369 126.571L75.8179 126.659Z" fill="black"/>
<path fill-rule="evenodd" clip-rule="evenodd" d="M102.636 157.626C102.45 157.534 102.264 157.44 102.081 157.349L101.581 156.72L95.033 148.42V148.564C94.989 149.95 94.517 160.933 90.839 161.947C86.914 163.028 82.18 163.3 80.022 155.995C77.864 148.69 73.922 132.73 69.871 131.782L75.895 126.845C78.2117 129.592 80.1049 132.67 81.512 135.976C81.451 135.699 78.697 122.837 80.957 120.561H100.712C100.712 120.561 103.763 129.246 105.854 133.548C107.482 136.888 109.926 144.786 111.498 150.13C112.205 152.54 111.424 155.14 109.506 156.762C107.589 158.384 104.895 158.723 102.636 157.626Z" fill="#474463"/>
<path opacity="0.1" fill-rule="evenodd" clip-rule="evenodd" d="M102.073 122.981C99.022 124.781 85.629 124.051 81.273 123.757L80.086 123.671C79.958 123.671 80.105 123.599 80.105 123.599L80.227 122.371L83.475 114.121L100.865 104.042C100.489 105.526 100.34 107.059 100.424 108.588C100.643 113.418 101.194 118.227 102.073 122.981Z" fill="black"/>
<path fill-rule="evenodd" clip-rule="evenodd" d="M102.073 122.574C99.022 124.374 85.629 123.644 81.273 123.35L80.086 123.267L79.886 123.25L80.102 123.195L81.173 122.918L83.473 113.718L100.863 103.642C100.487 105.126 100.338 106.659 100.422 108.188C100.642 113.015 101.194 117.822 102.073 122.574Z" fill="#F2F1F2"/>
<path opacity="0.1" fill-rule="evenodd" clip-rule="evenodd" d="M100.411 108.185C96.875 109 89.092 111.392 86.102 117.166C84.108 121.011 82.43 122.66 81.259 123.35L80.072 123.267C80.0796 123.243 80.086 123.219 80.091 123.195L81.161 122.918L83.461 113.718L100.851 103.642C100.476 105.125 100.328 106.657 100.411 108.185Z" fill="black"/>
<path opacity="0.1" fill-rule="evenodd" clip-rule="evenodd" d="M40.2229 111.078L44.2829 113.512C43.7029 113.744 43.1859 114.109 42.7739 114.579C42.4359 113.592 40.3109 112.214 39.3459 111.627C39.8709 111.275 40.2229 111.078 40.2229 111.078Z" fill="black"/>
<path opacity="0.1" fill-rule="evenodd" clip-rule="evenodd" d="M79.3489 123.425C79.2577 123.472 79.1465 123.457 79.0719 123.386C79.1619 123.412 79.2552 123.426 79.3489 123.425Z" fill="black"/>
<path fill-rule="evenodd" clip-rule="evenodd" d="M88.5379 82.538C86.2281 82.7027 83.9592 81.8646 82.3109 80.238C82.3109 80.238 71.4939 83.351 67.8299 90.384C64.1659 97.417 39.2629 111.214 39.2629 111.214C39.2629 111.214 43.5949 113.648 43.1879 114.865L59.5659 105.396C59.5659 105.396 65.3899 101.205 67.0069 100.257C68.6239 99.309 77.5659 93.493 79.4599 109.319C81.3539 125.145 79.4599 123.251 79.4599 123.251C79.4599 123.251 82.1669 124.199 86.0919 116.623C90.0169 109.047 102.192 107.29 102.192 107.29L102.869 99.312C102.869 99.312 105.285 94.023 103.424 91.828C102.86 91.178 102.485 90.386 102.34 89.538C102.032 87.512 102.34 84.138 106.65 81.33C113.282 77 115.85 73.485 115.85 73.485C115.85 73.485 115.986 70.913 111.925 69.696C107.864 68.479 91.3629 61.85 91.3629 61.85L90.8079 64.15L103.835 73.339C103.835 73.339 97.3349 78.606 92.1859 78.478C92.1819 78.479 93.1389 82.402 88.5379 82.538Z" fill="#FF748E"/>
<path opacity="0.1" fill-rule="evenodd" clip-rule="evenodd" d="M91.045 76.236C90.725 75.1532 90.4748 74.0509 90.296 72.936L83.124 74.829C83.4401 76.1975 83.3835 77.6258 82.96 78.965C85.9585 79.7639 89.1439 78.6887 91.045 76.236Z" fill="black"/>
<path fill-rule="evenodd" clip-rule="evenodd" d="M85.087 78.817C89.3468 78.817 92.8 75.3656 92.8 71.108C92.8 66.8504 89.3468 63.399 85.087 63.399C80.8273 63.399 77.374 66.8504 77.374 71.108C77.374 75.3656 80.8273 78.817 85.087 78.817Z" fill="#FFBDC6"/>
<path opacity="0.1" fill-rule="evenodd" clip-rule="evenodd" d="M89.19 53.575C91.331 53.816 93.364 54.736 95.472 55.238C95.9985 55.4027 96.5592 55.4247 97.097 55.302C97.915 55.047 98.581 54.193 99.43 54.218C99.9668 54.2943 100.464 54.5444 100.845 54.93C101.535 55.4566 102.184 56.035 102.786 56.66C104.239 58.237 105.141 60.36 106.467 62.077C107.793 63.794 109.884 65.126 111.767 64.339C110.486 69.329 106.289 73.129 101.749 73.439C99.938 73.561 98.082 73.184 96.329 73.716C95.8923 73.8937 95.4316 74.0059 94.962 74.049C93.952 74.049 93.14 73.123 92.51 72.222C91.034 70.104 89.867 67.698 88.21 65.766C87.7304 65.0974 87.0333 64.6163 86.238 64.405C85.4651 64.3722 84.7017 64.5858 84.058 65.015C82.8634 65.5448 81.7807 66.2976 80.868 67.233C79.9053 68.2779 79.5047 69.7225 79.792 71.114C80.1006 71.808 80.3206 72.5381 80.447 73.287C80.464 74.515 79.376 75.416 79.163 76.613C79.1147 77.1161 79.097 77.6217 79.11 78.127C78.8946 79.7112 78.0747 81.1506 76.822 82.144C76.3274 82.5049 75.9604 83.0138 75.774 83.597C75.688 84.018 75.774 84.467 75.718 84.897C75.4506 85.8868 74.5761 86.5918 73.552 86.643C72.4534 86.803 71.3319 86.6702 70.301 86.258C71.6971 85.4602 72.4289 83.861 72.12 82.283C71.701 80.083 69.493 78.513 69.682 76.276C69.7862 75.5907 69.9918 74.9248 70.292 74.3C70.7735 73.0939 71.1232 71.8393 71.335 70.558C71.5529 69.5722 71.531 68.5485 71.271 67.573C70.9328 66.7557 70.4788 65.9912 69.923 65.303C69.2571 64.3137 68.7317 63.2368 68.362 62.103C68.2269 61.7684 68.1754 61.406 68.212 61.047C68.3201 60.6166 68.5575 60.2296 68.892 59.938C70.098 58.671 71.392 57.352 73.005 56.991C73.7763 56.8608 74.561 56.8303 75.34 56.9C76.6951 56.9439 78.0516 56.8864 79.398 56.728C80.507 56.598 82.382 56.617 83.323 55.896C84.199 55.222 84.693 54.382 85.772 53.956C86.8654 53.554 88.0404 53.4246 89.195 53.579L89.19 53.575Z" fill="black"/>
<path opacity="0.1" fill-rule="evenodd" clip-rule="evenodd" d="M93.478 133.193C93.478 133.193 97.943 141.986 96.59 144.693L93.478 133.193Z" fill="black"/>
<path opacity="0.1" fill-rule="evenodd" clip-rule="evenodd" d="M101.574 156.708L95.034 148.42V148.564C95.034 148.564 94.657 145.881 95.902 146.782C98.631 148.755 102.997 151.99 103.091 152.548C103.185 153.106 102.206 155.33 101.574 156.708Z" fill="black"/>
<g opacity="0.1">
<path fill-rule="evenodd" clip-rule="evenodd" d="M92.3261 78.479C92.6375 79.7644 92.1534 81.1118 91.0951 81.905C91.9471 81.8405 92.7327 81.4209 93.2603 80.7488C93.7878 80.0767 94.0087 79.2139 93.8691 78.371C93.359 78.4527 92.8426 78.4888 92.3261 78.479Z" fill="black"/>
<path fill-rule="evenodd" clip-rule="evenodd" d="M40.899 110.671C40.899 110.671 65.799 96.871 69.466 89.842C72.087 84.794 78.405 81.767 81.766 80.459C79.32 81.291 71.077 84.426 67.982 90.383C64.329 97.416 39.415 111.215 39.415 111.215L40.899 110.671Z" fill="black"/>
<path fill-rule="evenodd" clip-rule="evenodd" d="M97.174 77.404C100.167 76.3299 102.966 74.7763 105.461 72.804L92.461 63.604L92.761 62.346L91.516 61.846L90.975 64.146L103.969 73.346C101.884 74.9798 99.6011 76.3433 97.174 77.404Z" fill="black"/>
<path fill-rule="evenodd" clip-rule="evenodd" d="M97.249 108.576C98.9087 108.01 100.612 107.58 102.341 107.29L102.363 107.029C100.621 107.412 98.9112 107.929 97.249 108.576Z" fill="black"/>
<path fill-rule="evenodd" clip-rule="evenodd" d="M81.4991 122.746H81.3801C81.2887 122.792 81.1781 122.777 81.1031 122.707C81.193 122.733 81.2863 122.746 81.3801 122.746C81.8241 122.488 82.4891 120.467 81.1031 108.775C79.6111 96.301 73.7391 97.275 70.5281 98.71C73.8121 97.81 78.3281 98.588 79.6141 109.316C81.0141 121.008 80.3461 123.029 79.8911 123.287C80.468 123.265 81.0263 123.077 81.4991 122.746Z" fill="black"/>
<path fill-rule="evenodd" clip-rule="evenodd" d="M79.892 123.289C79.7983 123.289 79.705 123.276 79.615 123.25C79.69 123.32 79.8007 123.335 79.892 123.289Z" fill="black"/>
</g>
<path fill-rule="evenodd" clip-rule="evenodd" d="M89.19 53.304C91.331 53.548 93.364 54.465 95.472 54.967C95.9987 55.1307 96.5595 55.1517 97.097 55.028C97.915 54.776 98.581 53.919 99.429 53.944C99.9635 54.0275 100.458 54.2765 100.844 54.656C101.533 55.1834 102.182 55.7617 102.785 56.386C104.238 57.963 105.14 60.086 106.465 61.803C107.79 63.52 109.882 64.852 111.765 64.065C110.484 69.055 106.287 72.855 101.747 73.165C99.936 73.29 98.08 72.913 96.328 73.442C95.8916 73.621 95.4308 73.7332 94.961 73.775C93.951 73.775 93.139 72.849 92.509 71.948C91.034 69.83 89.866 67.427 88.209 65.495C87.7303 64.8248 87.033 64.3424 86.237 64.131C85.4637 64.0992 84.7004 64.3139 84.057 64.744C82.8617 65.2728 81.7789 66.0257 80.867 66.962C79.9042 68.0069 79.5037 69.4515 79.791 70.843C80.0995 71.537 80.3195 72.2671 80.446 73.016C80.463 74.247 79.375 75.145 79.162 76.342C79.1137 76.8448 79.096 77.35 79.109 77.855C78.8927 79.4389 78.073 80.878 76.821 81.872C76.3265 82.2318 75.9595 82.7396 75.773 83.322C75.687 83.746 75.773 84.192 75.717 84.622C75.4505 85.6121 74.5752 86.3169 73.551 86.366C72.4524 86.5287 71.3302 86.3958 70.3 85.981C71.6958 85.1844 72.4277 83.5861 72.119 82.009C71.7 79.809 69.492 78.236 69.681 76.002C69.7848 75.3166 69.9904 74.6506 70.291 74.026C70.7721 72.8187 71.1218 71.5631 71.334 70.281C71.5518 69.2952 71.5298 68.2715 71.27 67.296C70.9311 66.479 70.4771 65.7146 69.922 65.026C69.2563 64.0366 68.731 62.9596 68.361 61.826C68.2264 61.4902 68.175 61.1269 68.211 60.767C68.3223 60.3419 68.5593 59.9603 68.891 59.672C70.098 58.405 71.391 57.088 73.004 56.725C73.7754 56.5969 74.56 56.567 75.339 56.636C76.694 56.6785 78.0504 56.621 79.397 56.464C80.506 56.334 82.381 56.35 83.321 55.632C84.197 54.961 84.691 54.118 85.77 53.692C86.8627 53.2872 88.0372 53.153 89.193 53.301L89.19 53.304Z" fill="#474463"/>
<path fill-rule="evenodd" clip-rule="evenodd" d="M140.003 144.542C148.592 144.542 155.554 137.583 155.554 128.999C155.554 120.415 148.592 113.456 140.003 113.456C131.414 113.456 124.452 120.415 124.452 128.999C124.452 137.583 131.414 144.542 140.003 144.542Z" fill="white"/>
<path fill-rule="evenodd" clip-rule="evenodd" d="M147.614 146.162C155.381 142.941 160.442 135.359 160.437 126.951C160.435 121.44 158.245 116.155 154.347 112.26C150.449 108.364 145.163 106.176 139.652 106.178C131.244 106.178 123.664 111.243 120.448 119.012C117.232 126.78 119.012 135.721 124.959 141.664C130.906 147.608 139.848 149.383 147.614 146.162ZM152.668 122.541L137.25 137.951L137.247 137.962C136.996 138.215 136.654 138.357 136.297 138.357C135.94 138.357 135.599 138.215 135.347 137.962L126.63 129.252C126.106 128.727 126.106 127.877 126.63 127.352L128.53 125.445C129.055 124.922 129.905 124.922 130.43 125.445L136.302 131.327L148.874 118.759C149.125 118.507 149.466 118.366 149.821 118.366C150.176 118.366 150.517 118.507 150.768 118.759L152.668 120.641C152.921 120.892 153.064 121.234 153.064 121.591C153.064 121.948 152.921 122.29 152.668 122.541Z" fill="#34C47C"/>
<defs>
<linearGradient id="paint0_linear" x1="79.9335" y1="124.812" x2="79.9335" y2="123.805" gradientUnits="userSpaceOnUse">
<stop stop-color="#808080" stop-opacity="0.251"/>
<stop offset="0.54" stop-color="#808080" stop-opacity="0.122"/>
<stop offset="1" stop-color="#808080" stop-opacity="0.102"/>
</linearGradient>
<linearGradient id="paint1_linear" x1="116.511" y1="162.541" x2="116.511" y2="52.5809" gradientUnits="userSpaceOnUse">
<stop stop-color="#808080" stop-opacity="0.251"/>
<stop offset="0.54" stop-color="#808080" stop-opacity="0.122"/>
<stop offset="1" stop-color="#808080" stop-opacity="0.102"/>
</linearGradient>
</defs>
</svg>
